# File created by Blade
# Date/Time:  Wed Jan 21 16:27:40 2015
# Frame Rate: 120.000 fps
#------------------------------------------------------
:FULLY-SPECIFIED
:DEGREES
521
root 12.035671 21.807761 -22.958256 -166.971003 64.135680 -206.797172
Spine 60.254529 -12.619786 4.786788
Head -38.282712 -7.305258 4.220071
LeftShoulder 32.638058 -51.184798 -9.522635
LeftArm 36.316364 11.095721 -64.161125
LeftForeArm -32.672961 0.000000 11.623133
LeftHand -6.156081 -0.000000 17.757337
LeftHandThumb1 -26.253704 0.000000 33.147579
RightShoulder 16.184780 9.353105 -6.761090
RightArm 49.886518 6.091706 34.019107
RightForeArm -14.035181 -0.000000 16.326614
RightHand -12.952321 0.000000 -12.544315
RightHandThumb1 -24.326973 -0.000000 -32.862282
LeftUpLeg 9.632012 8.949058 4.106823
LeftLeg 21.000295 -0.000000 -0.000000
LeftFoot -26.985746 10.523435 -19.936441
LeftToeBase -6.083477 -0.000000 0.000000
RightUpLeg -101.033811 -11.177782 9.716812
RightLeg 10.931729 -0.000000 -0.000000
RightFoot 30.994609 -31.938922 -18.115490
RightToeBase 10.958656 -0.000000 -0.000000
522
root 11.943200 21.681780 -22.959075 -167.595067 64.132893 -207.060829
Spine 60.287142 -12.733476 4.858205
Head -38.313723 -7.257124 4.457581
LeftShoulder 32.205310 -51.117478 -9.247388
LeftArm 36.573040 11.337558 -64.282393
LeftForeArm -33.077514 -0.000000 11.564456
LeftHand -6.029968 -0.000000 17.851211
LeftHandThumb1 -26.253704 0.000000 33.147579
RightShoulder 15.831819 9.062545 -6.759356
RightArm 50.031634 5.964544 34.000724
RightForeArm -13.591103 -0.000000 16.714393
RightHand -12.982457 -0.000000 -14.011104
RightHandThumb1 -24.326973 -0.000000 -32.862282
LeftUpLeg 10.026351 8.600138 4.082025
LeftLeg 21.325620 -0.000000 -0.000000
LeftFoot -27.602174 10.182167 -20.000262
LeftToeBase -6.724561 -0.000000 0.000000
RightUpLeg -101.126738 -11.248756 9.717356
RightLeg 11.254581 -0.000000 -0.000000
RightFoot 31.074921 -31.710511 -18.130936
RightToeBase 11.099742 -0.000000 -0.000000
523
root 11.854204 21.558873 -22.961016 -168.229889 64.115813 -207.378383
Spine 60.274655 -12.942870 4.664585
Head -38.161546 -6.949793 4.778871
LeftShoulder 31.539979 -50.924452 -8.730778
LeftArm 36.707741 11.063620 -64.696009
LeftForeArm -32.929502 -0.000000 11.646763
LeftHand -6.019163 -0.000000 18.065443
LeftHandThumb1 -26.253704 0.000000 33.147579
RightShoulder 15.549310 8.818337 -6.674715
RightArm 50.233488 5.939779 34.316554
RightForeArm -14.256153 -0.000000 17.218843
RightHand -12.881893 -0.000000 -14.657447
RightHandThumb1 -24.326973 -0.000000 -32.862282
LeftUpLeg 10.342882 8.151923 3.995272
LeftLeg 21.756834 -0.000000 -0.000000
LeftFoot -28.082855 9.944999 -20.044136
LeftToeBase -7.052378 -0.000000 0.000000
RightUpLeg -101.231510 -11.335579 9.647673
RightLeg 11.540900 -0.000000 -0.000000
RightFoot 31.210266 -31.571037 -18.131777
RightToeBase 11.043321 -0.000000 -0.000000
524
root 11.771441 21.436658 -22.953042 -168.754066 64.084617 -207.591212
Spine 60.227539 -13.117139 4.424234
Head -37.950384 -6.561962 5.306509
LeftShoulder 31.057141 -50.793363 -8.322170
LeftArm 36.628047 10.671338 -65.240905
LeftForeArm -32.561286 0.000000 11.744996
LeftHand -5.937159 -0.000000 18.558767
LeftHandThumb1 -26.253704 0.000000 33.147579
RightShoulder 15.277428 8.489219 -6.524654
RightArm 50.419798 6.044796 34.641998
RightForeArm -15.145887 -0.000000 17.877975
RightHand -12.731446 0.000000 -14.507240
RightHandThumb1 -24.326973 -0.000000 -32.862282
LeftUpLeg 10.589345 7.693231 3.956441
LeftLeg 22.303022 -0.000000 -0.000000
LeftFoot -28.336500 9.878215 -20.121857
LeftToeBase -7.730295 -0.000000 0.000000
RightUpLeg -101.333104 -11.408288 9.550869
RightLeg 11.854014 -0.000000 -0.000000
RightFoot 31.343628 -31.492482 -18.193824
RightToeBase 11.065673 -0.000000 -0.000000
525
root 11.695820 21.316584 -22.947100 -169.221718 64.021683 -207.735855
Spine 60.144021 -13.297349 4.326649
Head -37.688179 -6.276759 5.707399
LeftShoulder 30.835095 -50.664815 -8.165922
LeftArm 36.474864 10.302624 -65.730984
LeftForeArm -32.108193 -0.000000 11.819767
LeftHand -5.988628 -0.000000 18.974714
LeftHandThumb1 -26.253704 0.000000 33.147579
RightShoulder 14.939906 8.092550 -6.337661
RightArm 50.584948 5.859121 34.326817
RightForeArm -15.158698 -0.000000 18.541163
RightHand -12.501356 -0.000000 -14.395902
RightHandThumb1 -24.326973 -0.000000 -32.862282
LeftUpLeg 10.801986 7.305708 3.974381
LeftLeg 22.942889 -0.000000 -0.000000
LeftFoot -28.337331 10.014994 -20.161217
LeftToeBase -8.533768 -0.000000 0.000000
RightUpLeg -101.413329 -11.520936 9.439006
RightLeg 12.167853 -0.000000 -0.000000
RightFoot 31.469928 -31.386660 -18.218830
RightToeBase 11.211846 -0.000000 -0.000000
526
root 11.622241 21.197641 -22.934152 -169.601273 63.957645 -207.825510
Spine 60.016761 -13.571953 4.054150
Head -37.300512 -5.869268 6.071108
LeftShoulder 30.275750 -50.436478 -7.706638
LeftArm 36.400257 10.018194 -66.027198
LeftForeArm -31.696851 -0.000000 11.857548
LeftHand -6.079187 0.000000 19.243164
LeftHandThumb1 -26.253704 0.000000 33.147579
RightShoulder 15.022519 7.904710 -5.974825
RightArm 50.498528 5.520246 33.813612
RightForeArm -15.406687 -0.000000 19.074824
RightHand -12.529825 0.000000 -14.357402
RightHandThumb1 -24.326973 -0.000000 -32.862282
LeftUpLeg 10.917674 6.956415 4.039335
LeftLeg 23.723344 -0.000000 -0.000000
LeftFoot -27.948386 10.414482 -19.937866
LeftToeBase -10.084313 -0.000000 0.000000
RightUpLeg -101.481924 -11.609201 9.291188
RightLeg 12.426744 -0.000000 -0.000000
RightFoot 31.679215 -31.293726 -18.308410
RightToeBase 11.353980 -0.000000 -0.000000
527
root 11.554462 21.089353 -22.926543 -169.869301 63.882173 -207.731089
Spine 59.942042 -13.875649 3.977148
Head -36.938945 -5.585309 6.204349
LeftShoulder 29.865122 -50.238241 -7.496903
LeftArm 36.478888 10.036435 -66.029045
LeftForeArm -31.561243 -0.000000 11.646990
LeftHand -6.184790 -0.000000 19.299554
LeftHandThumb1 -26.253704 0.000000 33.147579
RightShoulder 15.097853 7.905369 -5.767224
RightArm 50.374056 5.140892 33.412645
RightForeArm -15.750061 -0.000000 19.267865
RightHand -12.477425 -0.000000 -14.174621
RightHandThumb1 -24.326973 -0.000000 -32.862282
LeftUpLeg 11.030191 6.635454 4.184683
LeftLeg 24.623527 -0.000000 -0.000000
LeftFoot -27.492221 10.786397 -19.860084
LeftToeBase -10.208116 -0.000000 0.000000
RightUpLeg -101.385850 -11.698096 9.308158
RightLeg 12.467806 -0.000000 -0.000000
RightFoot 31.983797 -31.133421 -18.456417
RightToeBase 11.479666 -0.000000 -0.000000
528
root 11.496453 20.977736 -22.913343 -170.129418 63.832124 -207.547573
Spine 59.928567 -14.158487 3.882586
Head -36.482439 -5.245759 6.209983
LeftShoulder 29.310812 -49.816483 -7.092229
LeftArm 36.835830 10.160003 -65.737664
LeftForeArm -31.697613 0.000000 11.330273
LeftHand -6.308407 0.000000 19.161102
LeftHandThumb1 -26.253704 0.000000 33.147579
RightShoulder 15.288626 7.855636 -5.643633
RightArm 50.262130 4.727542 33.016182
RightForeArm -15.951738 -0.000000 19.289181
RightHand -12.356592 0.000000 -14.287539
RightHandThumb1 -24.326973 -0.000000 -32.862282
LeftUpLeg 11.218303 6.480493 4.449896
LeftLeg 25.520720 -0.000000 -0.000000
LeftFoot -27.035057 10.960524 -19.728508
LeftToeBase -11.356175 -0.000000 0.000000
RightUpLeg -101.259468 -11.771322 9.200957
RightLeg 12.698284 -0.000000 -0.000000
RightFoot 32.201463 -31.007938 -18.575236
RightToeBase 11.751800 -0.000000 -0.000000
529
root 11.447706 20.869794 -22.902574 -170.317602 63.801625 -207.144472
Spine 60.023481 -14.306281 3.963746
Head -36.016112 -5.071414 6.320261
LeftShoulder 29.273068 -49.674093 -7.007244
LeftArm 36.880247 10.399607 -65.463721
LeftForeArm -31.968899 -0.000000 10.936772
LeftHand -6.397291 -0.000000 18.865328
LeftHandThumb1 -26.253704 0.000000 33.147579
RightShoulder 15.371873 6.459693 -5.699556
RightArm 50.911170 5.476829 32.301269
RightForeArm -15.983023 -0.000000 19.102850
RightHand -12.308573 0.000000 -14.386139
RightHandThumb1 -24.326973 -0.000000 -32.862282
LeftUpLeg 11.562922 6.302481 4.806270
LeftLeg 26.316764 -0.000000 -0.000000
LeftFoot -26.818994 10.711817 -19.719915
LeftToeBase -13.238593 -0.000000 0.000000
RightUpLeg -101.015097 -11.834171 9.174096
RightLeg 12.996873 -0.000000 -0.000000
RightFoot 32.398585 -30.859307 -18.713034
RightToeBase 11.800313 -0.000000 -0.000000
530
root 11.402219 20.765000 -22.892357 -170.461658 63.748751 -206.723084
Spine 60.104597 -14.529141 4.052024
Head -35.590329 -4.812132 6.269906
LeftShoulder 29.054736 -49.438648 -6.877765
LeftArm 37.140207 10.765847 -65.014132
LeftForeArm -32.404352 0.000000 10.443054
LeftHand -6.438227 -0.000000 18.452208
LeftHandThumb1 -26.253704 0.000000 33.147579
RightShoulder 15.431265 5.501551 -5.747905
RightArm 51.496103 5.915586 31.839897
RightForeArm -15.981358 0.000000 18.796254
RightHand -12.191130 -0.000000 -14.569073
RightHandThumb1 -24.326973 -0.000000 -32.862282
LeftUpLeg 11.923459 6.077624 5.153672
LeftLeg 26.955948 -0.000000 -0.000000
LeftFoot -27.102207 10.199654 -19.611451
LeftToeBase -14.616565 -0.000000 0.000000
RightUpLeg -100.826568 -11.923967 9.153038
RightLeg 13.359091 -0.000000 -0.000000
RightFoot 32.591737 -30.622645 -18.865772
RightToeBase 12.237160 -0.000000 -0.000000
